<svg width="1238" height="75" viewBox="0 0 1238 75" fill="none" xmlns="http://www.w3.org/2000/svg">
<rect x="0.359375" y="0.201172" width="1237" height="74" rx="12" fill="#FDF8F6"/>
<g clip-path="url(#clip0_1382_21695)">
<mask id="mask0_1382_21695" style="mask-type:luminance" maskUnits="userSpaceOnUse" x="18" y="20" width="31" height="34">
<path d="M48.3473 20.2H18.2886V53.0327H48.3473V20.2Z" fill="white"/>
</mask>
<g mask="url(#mask0_1382_21695)">
<path fill-rule="evenodd" clip-rule="evenodd" d="M42.6856 49.4054C42.5703 50.3368 42.3815 51.2585 42.1207 52.1626C42.0493 52.4135 41.9416 52.6536 41.8007 52.876C42.6286 52.615 43.4178 52.253 44.1488 51.7988C46.9447 50.0661 48.3433 47.6046 48.3433 44.395C48.3433 42.3529 47.7924 40.5169 46.6905 38.8871C45.5886 37.2572 43.6991 35.4782 41.022 33.5501L39.7834 32.6683C37.9652 31.3607 36.723 30.2621 36.0568 29.3726C35.3844 28.4792 35.0509 27.5345 35.0509 26.5447C35.0509 25.2379 35.5265 24.1809 36.4778 23.3737C37.429 22.5664 38.7245 22.1602 40.3644 22.1551C42.4448 22.1551 44.0708 22.8518 45.2273 24.2426C45.9993 25.1822 46.3839 26.1141 46.3839 27.0524C46.3839 27.5666 46.5359 27.8237 46.8317 27.8237C47.1626 27.8237 47.3213 27.3969 47.3213 26.5499C47.3213 25.2169 47.3482 24.0163 47.4114 22.9508C47.4746 21.8852 47.5001 21.3826 47.5001 21.4417C47.5001 21.2116 47.293 21.0471 46.8734 20.9275C44.9401 20.4515 42.9525 20.2067 40.9561 20.1987C37.8898 20.1987 35.4055 20.9494 33.503 22.4507C31.6004 23.9521 30.6456 25.8806 30.6384 28.2363C30.6384 31.67 32.8404 35.0313 37.2443 38.3202L39.2966 39.8498C42.2113 42.035 43.6695 44.3058 43.6713 46.6624C43.679 47.6573 43.3313 48.625 42.6856 49.4054Z" fill="#E7414B"/>
<path fill-rule="evenodd" clip-rule="evenodd" d="M28.1181 33.068V40.558C28.1181 43.7612 28.1629 45.8752 28.2525 46.9001C28.3695 48.4284 28.6385 49.3681 29.0595 49.7087C29.8045 50.3321 31.6012 50.6483 34.4604 50.6483C37.1675 50.6483 38.9091 50.2473 39.6811 49.4593C40.336 48.7768 40.7206 47.9297 40.8457 46.9065C40.9076 46.4798 41.0649 46.2638 41.3339 46.2638C41.5746 46.2638 41.6929 46.5068 41.6929 46.9862C41.6991 48.6359 41.473 50.2788 41.0205 51.8707C40.8412 52.4706 40.4826 52.8249 39.9446 52.9337C39.7375 52.9929 39.1525 53.0186 38.1963 53.0186C35.8133 53.0186 33.2993 52.9757 30.6544 52.89C28.0096 52.8043 26.1936 52.7615 25.2065 52.7615C24.9375 52.7615 24.097 52.7833 22.6849 52.8271C21.2728 52.8733 20.2399 52.8926 19.5917 52.8926C18.9933 52.8926 18.6974 52.7486 18.6974 52.4659C18.6974 52.2692 19.0269 52.1381 19.6818 52.0802C20.1297 52.0211 20.5775 51.9825 21.0186 51.9517C21.7005 51.8077 22.1335 51.0326 22.3124 49.6149C22.4639 48.5197 22.5369 45.5076 22.5316 40.5785V33.068C22.5316 27.9933 22.502 24.9867 22.4428 24.0484C22.3809 22.9982 22.0568 22.29 21.457 21.9224C20.9823 21.6396 20.1767 21.4956 19.0471 21.4956C18.5441 21.4956 18.2886 21.3671 18.2886 21.11C18.2886 20.8529 18.6261 20.7244 19.2811 20.7244C20.053 20.7244 21.1894 20.7436 22.6768 20.7899C24.1642 20.8362 25.0733 20.8696 25.3934 20.8696C25.6893 20.8696 26.6199 20.8503 28.1826 20.8041C29.7453 20.7578 30.8414 20.7385 31.4614 20.7385C32.0813 20.7385 32.4027 20.867 32.4027 21.1241C32.4027 21.3812 32.1338 21.5097 31.5958 21.5097C31.0103 21.504 30.4253 21.547 29.8475 21.6383C28.8344 21.8097 28.283 22.6169 28.1934 24.06C28.1387 25.0026 28.1113 28.0113 28.1113 33.086" fill="#582467"/>
</g>
</g>
<path d="M286.193 36.3652L284.529 42.7012H282.497L279.393 32.1412H281.249L283.553 41.3412L285.873 32.1412H287.633L289.969 41.3572L292.289 32.1412H294.049L290.961 42.7012H288.945L287.265 36.3652L286.737 33.9332H286.721L286.193 36.3652ZM298.7 34.5412C301.196 34.5412 302.684 36.0932 302.684 38.7012C302.684 41.3092 301.196 42.8612 298.7 42.8612C296.204 42.8612 294.716 41.3092 294.716 38.7012C294.716 36.0932 296.204 34.5412 298.7 34.5412ZM298.7 35.8852C297.26 35.8852 296.444 36.8932 296.444 38.7012C296.444 40.5092 297.26 41.5172 298.7 41.5172C300.14 41.5172 300.972 40.5092 300.972 38.7012C300.972 36.8932 300.14 35.8852 298.7 35.8852ZM314.531 34.5412C316.067 34.5412 317.475 35.4852 317.475 37.5172V42.7012H315.763V37.7892C315.763 36.4772 315.059 35.9492 314.115 35.9492C312.995 35.9492 312.035 36.7972 312.035 38.3492V42.7012H310.323V37.7892C310.323 36.4772 309.619 35.9492 308.675 35.9492C307.715 35.9492 306.595 36.6532 306.595 38.4452V42.7012H304.883V34.7012H306.403L306.483 36.0292C307.043 35.0212 308.035 34.5412 309.075 34.5412C310.227 34.5412 311.283 35.0532 311.779 36.1412C312.291 35.0532 313.459 34.5412 314.531 34.5412ZM326.982 41.5812C327.19 41.5812 327.398 41.5652 327.574 41.5172L327.462 42.6692C327.206 42.7812 326.87 42.8612 326.47 42.8612C325.59 42.8612 325.014 42.5572 324.838 41.6772C324.342 42.4292 323.318 42.8612 322.134 42.8612C320.63 42.8612 319.526 42.1572 319.526 40.7652C319.526 39.5332 320.55 38.6212 322.646 38.2532L324.678 37.9012V37.4692C324.678 36.5092 324.086 35.8852 323.046 35.8852C322.054 35.8852 321.318 36.3172 320.982 37.3252L319.654 36.6212C320.038 35.3572 321.27 34.5412 323.014 34.5412C325.014 34.5412 326.39 35.4532 326.39 37.3732V40.9892C326.39 41.3892 326.55 41.5812 326.982 41.5812ZM322.502 41.5652C323.574 41.5652 324.678 41.0052 324.678 40.0452V39.0852L322.934 39.4372C321.846 39.6452 321.302 40.0132 321.302 40.6532C321.302 41.2452 321.75 41.5652 322.502 41.5652ZM333.499 34.5412C335.195 34.5412 336.507 35.5172 336.507 37.5172V42.7012H334.795V38.0612C334.795 36.4772 334.059 35.9492 333.083 35.9492C332.027 35.9492 330.907 36.6212 330.907 38.4612V42.7012H329.195V34.7012H330.715L330.795 36.0292C331.339 34.9892 332.347 34.5412 333.499 34.5412Z" fill="#582467"/>
<path d="M375.282 33.1412V43.7012H373.714V37.5892L373.826 34.6772H373.81L370.594 43.7012H369.17L365.954 34.6772H365.938L366.066 37.5892V43.7012H364.482V33.1412H367.026L369.154 39.2532L369.89 41.7652H369.922L370.674 39.2532L372.786 33.1412H375.282ZM385.013 42.5812C385.221 42.5812 385.429 42.5652 385.605 42.5172L385.493 43.6692C385.237 43.7812 384.901 43.8612 384.501 43.8612C383.621 43.8612 383.045 43.5572 382.869 42.6772C382.373 43.4292 381.349 43.8612 380.165 43.8612C378.661 43.8612 377.557 43.1572 377.557 41.7652C377.557 40.5332 378.581 39.6212 380.677 39.2532L382.709 38.9012V38.4692C382.709 37.5092 382.117 36.8852 381.077 36.8852C380.085 36.8852 379.349 37.3172 379.013 38.3252L377.685 37.6212C378.069 36.3572 379.301 35.5412 381.045 35.5412C383.045 35.5412 384.421 36.4532 384.421 38.3732V41.9892C384.421 42.3892 384.581 42.5812 385.013 42.5812ZM380.533 42.5652C381.605 42.5652 382.709 42.0052 382.709 41.0452V40.0852L380.965 40.4372C379.877 40.6452 379.333 41.0132 379.333 41.6532C379.333 42.2452 379.781 42.5652 380.533 42.5652ZM391.53 35.5412C393.226 35.5412 394.538 36.5172 394.538 38.5172V43.7012H392.826V39.0612C392.826 37.4772 392.09 36.9492 391.114 36.9492C390.058 36.9492 388.938 37.6212 388.938 39.4612V43.7012H387.226V35.7012H388.746L388.826 37.0292C389.37 35.9892 390.378 35.5412 391.53 35.5412Z" fill="#582467"/>
<path d="M428.13 34.6132H422.21V37.6692H426.85V39.1572H422.21V43.7012H420.498V33.1412H428.13V34.6132ZM432.715 35.5412C435.211 35.5412 436.699 37.0932 436.699 39.7012C436.699 42.3092 435.211 43.8612 432.715 43.8612C430.219 43.8612 428.731 42.3092 428.731 39.7012C428.731 37.0932 430.219 35.5412 432.715 35.5412ZM432.715 36.8852C431.275 36.8852 430.459 37.8932 430.459 39.7012C430.459 41.5092 431.275 42.5172 432.715 42.5172C434.155 42.5172 434.987 41.5092 434.987 39.7012C434.987 37.8932 434.155 36.8852 432.715 36.8852ZM443.026 35.5412C443.346 35.5412 443.682 35.5892 443.906 35.7012L443.634 37.2692C443.41 37.1412 443.058 37.0612 442.626 37.0612C441.666 37.0612 440.61 37.8292 440.61 39.4612V43.7012H438.898V35.7012H440.354L440.498 37.1412C440.93 36.1012 441.778 35.5412 443.026 35.5412ZM454.687 35.5412C456.383 35.5412 457.695 36.5172 457.695 38.5172V43.7012H455.983V39.0612C455.983 37.4772 455.247 36.9492 454.271 36.9492C453.215 36.9492 452.095 37.6212 452.095 39.4612V43.7012H450.383V35.7012H451.903L451.983 37.0292C452.527 35.9892 453.535 35.5412 454.687 35.5412ZM463.809 35.5412C466.305 35.5412 467.793 37.0932 467.793 39.7012C467.793 42.3092 466.305 43.8612 463.809 43.8612C461.313 43.8612 459.825 42.3092 459.825 39.7012C459.825 37.0932 461.313 35.5412 463.809 35.5412ZM463.809 36.8852C462.369 36.8852 461.553 37.8932 461.553 39.7012C461.553 41.5092 462.369 42.5172 463.809 42.5172C465.249 42.5172 466.081 41.5092 466.081 39.7012C466.081 37.8932 465.249 36.8852 463.809 36.8852ZM475.528 35.7012H477.24V43.7012H475.72L475.656 42.4052C475.096 43.4132 474.088 43.8612 472.808 43.8612C471.208 43.8612 469.928 43.0452 469.928 40.9652V35.7012H471.64V40.5172C471.64 42.0052 472.28 42.4532 473.288 42.4532C474.504 42.4532 475.528 41.7172 475.528 40.0212V35.7012ZM484.202 35.5412C486.378 35.5412 487.738 37.0932 487.738 39.7172C487.738 42.3252 486.378 43.8612 484.202 43.8612C482.922 43.8612 481.946 43.1892 481.482 42.2132L481.402 43.7012H479.898V32.1012H481.61V36.9812C482.09 36.1172 483.018 35.5412 484.202 35.5412ZM483.818 42.4852C485.194 42.4852 486.026 41.4452 486.026 39.7012C486.026 37.9572 485.194 36.9332 483.818 36.9332C482.522 36.9332 481.69 37.8612 481.61 39.3972V40.0052C481.69 41.5572 482.522 42.4852 483.818 42.4852ZM490.825 34.3572C490.089 34.3572 489.673 33.9572 489.673 33.2852C489.673 32.6132 490.089 32.2292 490.825 32.2292C491.561 32.2292 491.961 32.6132 491.961 33.2852C491.961 33.9572 491.561 34.3572 490.825 34.3572ZM491.673 35.7012V43.7012H489.961V35.7012H491.673ZM501.503 39.4612C501.503 39.7652 501.471 40.1332 501.439 40.3412H495.583C495.775 41.7492 496.623 42.5012 497.903 42.5012C498.959 42.5012 499.663 42.1172 499.919 41.4132L501.343 42.0052C500.767 43.1892 499.663 43.8612 497.903 43.8612C495.375 43.8612 493.887 42.3092 493.887 39.7012C493.887 37.0932 495.295 35.5412 497.791 35.5412C500.191 35.5412 501.503 37.1412 501.503 39.4612ZM497.791 36.9012C496.543 36.9012 495.775 37.6532 495.583 39.0292H499.903C499.727 37.6852 498.975 36.9012 497.791 36.9012ZM506.544 43.8612C504.992 43.8612 503.648 43.3492 502.976 42.1812L504.128 41.1892C504.544 42.1492 505.488 42.5172 506.608 42.5172C507.744 42.5172 508.32 42.1012 508.32 41.5572C508.32 41.0612 507.856 40.7732 506.464 40.5012C504.08 40.0532 503.248 39.3652 503.248 38.0212C503.248 36.7252 504.464 35.5412 506.608 35.5412C508.384 35.5412 509.392 36.1172 509.968 37.3492L508.72 38.2772C508.352 37.3012 507.664 36.8852 506.624 36.8852C505.632 36.8852 504.96 37.3652 504.96 37.8612C504.96 38.4372 505.424 38.7412 506.928 39.0132C509.216 39.4292 510.032 40.1172 510.032 41.4452C510.032 42.8532 508.752 43.8612 506.544 43.8612Z" fill="#582467"/>
<path d="M543.309 34.6132H537.389V37.6692H542.029V39.1572H537.389V43.7012H535.677V33.1412H543.309V34.6132ZM547.895 35.5412C550.391 35.5412 551.879 37.0932 551.879 39.7012C551.879 42.3092 550.391 43.8612 547.895 43.8612C545.399 43.8612 543.911 42.3092 543.911 39.7012C543.911 37.0932 545.399 35.5412 547.895 35.5412ZM547.895 36.8852C546.455 36.8852 545.639 37.8932 545.639 39.7012C545.639 41.5092 546.455 42.5172 547.895 42.5172C549.335 42.5172 550.167 41.5092 550.167 39.7012C550.167 37.8932 549.335 36.8852 547.895 36.8852ZM558.206 35.5412C558.526 35.5412 558.862 35.5892 559.086 35.7012L558.814 37.2692C558.59 37.1412 558.238 37.0612 557.806 37.0612C556.846 37.0612 555.79 37.8292 555.79 39.4612V43.7012H554.078V35.7012H555.534L555.678 37.1412C556.11 36.1012 556.958 35.5412 558.206 35.5412ZM569.866 33.1412C572.138 33.1412 573.578 34.3732 573.578 36.4372C573.578 38.4852 572.138 39.7172 569.866 39.7172H567.514V43.7012H565.802V33.1412H569.866ZM569.594 38.2612C571.114 38.2612 571.802 37.6372 571.802 36.4372C571.802 35.2372 571.114 34.5972 569.594 34.5972H567.514V38.2612H569.594ZM582.506 42.5812C582.714 42.5812 582.922 42.5652 583.098 42.5172L582.986 43.6692C582.73 43.7812 582.394 43.8612 581.994 43.8612C581.114 43.8612 580.538 43.5572 580.362 42.6772C579.866 43.4292 578.842 43.8612 577.658 43.8612C576.154 43.8612 575.05 43.1572 575.05 41.7652C575.05 40.5332 576.074 39.6212 578.17 39.2532L580.202 38.9012V38.4692C580.202 37.5092 579.61 36.8852 578.57 36.8852C577.578 36.8852 576.842 37.3172 576.506 38.3252L575.178 37.6212C575.562 36.3572 576.794 35.5412 578.538 35.5412C580.538 35.5412 581.914 36.4532 581.914 38.3732V41.9892C581.914 42.3892 582.074 42.5812 582.506 42.5812ZM578.026 42.5652C579.098 42.5652 580.202 42.0052 580.202 41.0452V40.0852L578.458 40.4372C577.37 40.6452 576.826 41.0132 576.826 41.6532C576.826 42.2452 577.274 42.5652 578.026 42.5652ZM585.583 34.3572C584.847 34.3572 584.431 33.9572 584.431 33.2852C584.431 32.6132 584.847 32.2292 585.583 32.2292C586.319 32.2292 586.719 32.6132 586.719 33.2852C586.719 33.9572 586.319 34.3572 585.583 34.3572ZM586.431 35.7012V43.7012H584.719V35.7012H586.431ZM593.237 35.5412C593.557 35.5412 593.893 35.5892 594.117 35.7012L593.845 37.2692C593.621 37.1412 593.269 37.0612 592.837 37.0612C591.877 37.0612 590.821 37.8292 590.821 39.4612V43.7012H589.109V35.7012H590.565L590.709 37.1412C591.141 36.1012 591.989 35.5412 593.237 35.5412ZM598.365 43.8612C596.813 43.8612 595.469 43.3492 594.797 42.1812L595.949 41.1892C596.365 42.1492 597.309 42.5172 598.429 42.5172C599.565 42.5172 600.141 42.1012 600.141 41.5572C600.141 41.0612 599.677 40.7732 598.285 40.5012C595.901 40.0532 595.069 39.3652 595.069 38.0212C595.069 36.7252 596.285 35.5412 598.429 35.5412C600.205 35.5412 601.213 36.1172 601.789 37.3492L600.541 38.2772C600.173 37.3012 599.485 36.8852 598.445 36.8852C597.453 36.8852 596.781 37.3652 596.781 37.8612C596.781 38.4372 597.245 38.7412 598.749 39.0132C601.037 39.4292 601.853 40.1172 601.853 41.4452C601.853 42.8532 600.573 43.8612 598.365 43.8612Z" fill="#582467"/>
<path d="M636.263 34.6132H630.343V37.6692H634.983V39.1572H630.343V43.7012H628.631V33.1412H636.263V34.6132ZM644.48 39.4612C644.48 39.7652 644.448 40.1332 644.416 40.3412H638.56C638.752 41.7492 639.6 42.5012 640.88 42.5012C641.936 42.5012 642.64 42.1172 642.896 41.4132L644.32 42.0052C643.744 43.1892 642.64 43.8612 640.88 43.8612C638.352 43.8612 636.864 42.3092 636.864 39.7012C636.864 37.0932 638.272 35.5412 640.768 35.5412C643.168 35.5412 644.48 37.1412 644.48 39.4612ZM640.768 36.9012C639.52 36.9012 638.752 37.6532 638.56 39.0292H642.88C642.704 37.6852 641.952 36.9012 640.768 36.9012ZM651.221 41.9252L651.621 43.1732C651.109 43.6052 650.357 43.8612 649.493 43.8612C648.117 43.8612 647.061 43.2372 647.045 41.5892V37.0452H645.525V35.7012H647.045V33.8292L648.757 33.3492V35.7012H651.557V37.0452H648.757V41.3012C648.757 42.0852 649.221 42.4372 649.925 42.4372C650.469 42.4372 650.869 42.2452 651.221 41.9252ZM654.083 34.3572C653.347 34.3572 652.931 33.9572 652.931 33.2852C652.931 32.6132 653.347 32.2292 654.083 32.2292C654.819 32.2292 655.219 32.6132 655.219 33.2852C655.219 33.9572 654.819 34.3572 654.083 34.3572ZM654.931 35.7012V43.7012H653.219V35.7012H654.931ZM660.505 43.8612C658.953 43.8612 657.609 43.3492 656.937 42.1812L658.089 41.1892C658.505 42.1492 659.449 42.5172 660.569 42.5172C661.705 42.5172 662.281 42.1012 662.281 41.5572C662.281 41.0612 661.817 40.7732 660.425 40.5012C658.041 40.0532 657.209 39.3652 657.209 38.0212C657.209 36.7252 658.425 35.5412 660.569 35.5412C662.345 35.5412 663.353 36.1172 663.929 37.3492L662.681 38.2772C662.313 37.3012 661.625 36.8852 660.585 36.8852C659.593 36.8852 658.921 37.3652 658.921 37.8612C658.921 38.4372 659.385 38.7412 660.889 39.0132C663.177 39.4292 663.993 40.1172 663.993 41.4452C663.993 42.8532 662.713 43.8612 660.505 43.8612ZM670.382 35.5412C672.078 35.5412 673.39 36.5172 673.39 38.5172V43.7012H671.678V39.0612C671.678 37.4772 670.942 36.9492 669.966 36.9492C668.91 36.9492 667.79 37.6372 667.79 39.4772V43.7012H666.078V32.1012H667.79V36.9812C668.334 35.9732 669.278 35.5412 670.382 35.5412Z" fill="#582467"/>
<path d="M701.623 43.7012V33.1412H705.783C708.311 33.1412 709.447 34.2292 709.447 36.0372C709.447 37.1412 708.791 38.1172 707.559 38.3412V38.3572C708.919 38.5812 709.719 39.5892 709.719 40.7732C709.719 42.5812 708.359 43.7012 705.847 43.7012H701.623ZM703.303 37.6852H705.655C706.999 37.6852 707.671 37.1732 707.671 36.1332C707.671 35.0932 706.999 34.5812 705.655 34.5812H703.303V37.6852ZM703.303 42.2772H705.927C707.271 42.2772 707.943 41.7012 707.943 40.6932C707.943 39.6852 707.271 39.1092 705.927 39.1092H703.303V42.2772ZM716.104 35.5412C716.424 35.5412 716.76 35.5892 716.984 35.7012L716.712 37.2692C716.488 37.1412 716.136 37.0612 715.704 37.0612C714.744 37.0612 713.688 37.8292 713.688 39.4612V43.7012H711.976V35.7012H713.432L713.576 37.1412C714.008 36.1012 714.856 35.5412 716.104 35.5412ZM725.342 42.5812C725.55 42.5812 725.758 42.5652 725.934 42.5172L725.822 43.6692C725.566 43.7812 725.23 43.8612 724.83 43.8612C723.95 43.8612 723.374 43.5572 723.198 42.6772C722.702 43.4292 721.678 43.8612 720.494 43.8612C718.99 43.8612 717.886 43.1572 717.886 41.7652C717.886 40.5332 718.91 39.6212 721.006 39.2532L723.038 38.9012V38.4692C723.038 37.5092 722.446 36.8852 721.406 36.8852C720.414 36.8852 719.678 37.3172 719.342 38.3252L718.014 37.6212C718.398 36.3572 719.63 35.5412 721.374 35.5412C723.374 35.5412 724.75 36.4532 724.75 38.3732V41.9892C724.75 42.3892 724.91 42.5812 725.342 42.5812ZM720.862 42.5652C721.934 42.5652 723.038 42.0052 723.038 41.0452V40.0852L721.294 40.4372C720.206 40.6452 719.662 41.0132 719.662 41.6532C719.662 42.2452 720.11 42.5652 720.862 42.5652ZM731.859 35.5412C733.555 35.5412 734.867 36.5172 734.867 38.5172V43.7012H733.155V39.0612C733.155 37.4772 732.419 36.9492 731.443 36.9492C730.387 36.9492 729.267 37.6212 729.267 39.4612V43.7012H727.555V35.7012H729.075L729.155 37.0292C729.699 35.9892 730.707 35.5412 731.859 35.5412ZM743.157 32.1012H744.869V43.7012H743.365L743.269 42.2772C742.805 43.2212 741.829 43.8612 740.581 43.8612C738.389 43.8612 737.029 42.3252 737.029 39.7172C737.029 37.0932 738.405 35.5412 740.581 35.5412C741.781 35.5412 742.693 36.1172 743.157 36.9972V32.1012ZM740.965 42.4852C742.293 42.4852 743.157 41.4772 743.157 39.7972V39.6052C743.157 37.9412 742.309 36.9332 740.965 36.9332C739.589 36.9332 738.757 37.9572 738.757 39.7012C738.757 41.4452 739.589 42.4852 740.965 42.4852ZM750.419 43.8612C748.867 43.8612 747.523 43.3492 746.851 42.1812L748.003 41.1892C748.419 42.1492 749.363 42.5172 750.483 42.5172C751.619 42.5172 752.195 42.1012 752.195 41.5572C752.195 41.0612 751.731 40.7732 750.339 40.5012C747.955 40.0532 747.123 39.3652 747.123 38.0212C747.123 36.7252 748.339 35.5412 750.483 35.5412C752.259 35.5412 753.267 36.1172 753.843 37.3492L752.595 38.2772C752.227 37.3012 751.539 36.8852 750.499 36.8852C749.507 36.8852 748.835 37.3652 748.835 37.8612C748.835 38.4372 749.299 38.7412 750.803 39.0132C753.091 39.4292 753.907 40.1172 753.907 41.4452C753.907 42.8532 752.627 43.8612 750.419 43.8612Z" fill="#582467"/>
<path d="M1006.89 45.6705L1002.2 40.9774C1003.56 39.344 1004.23 37.2489 1004.09 35.1281C1003.95 33.0072 1002.99 31.0238 1001.42 29.5905C999.849 28.1572 997.787 27.3843 995.661 27.4326C993.536 27.4809 991.511 28.3466 990.008 29.8498C988.505 31.353 987.639 33.3778 987.591 35.5031C987.542 37.6283 988.315 39.6904 989.749 41.2603C991.182 42.8302 993.165 43.7871 995.286 43.9319C997.407 44.0767 999.502 43.3982 1001.14 42.0377L1005.83 46.7318C1005.9 46.8014 1005.98 46.8567 1006.07 46.8944C1006.16 46.9321 1006.26 46.9516 1006.36 46.9516C1006.46 46.9516 1006.56 46.9321 1006.65 46.8944C1006.74 46.8567 1006.82 46.8014 1006.89 46.7318C1006.96 46.6621 1007.01 46.5794 1007.05 46.4883C1007.09 46.3973 1007.11 46.2997 1007.11 46.2011C1007.11 46.1026 1007.09 46.005 1007.05 45.914C1007.01 45.8229 1006.96 45.7402 1006.89 45.6705ZM989.109 35.7011C989.109 34.3661 989.505 33.0611 990.247 31.951C990.989 30.841 992.043 29.9758 993.276 29.465C994.51 28.9541 995.867 28.8204 997.176 29.0808C998.486 29.3413 999.688 29.9842 1000.63 30.9282C1001.58 31.8722 1002.22 33.0749 1002.48 34.3843C1002.74 35.6937 1002.61 37.0509 1002.1 38.2843C1001.58 39.5177 1000.72 40.5719 999.609 41.3136C998.499 42.0553 997.194 42.4511 995.859 42.4511C994.07 42.4492 992.354 41.7374 991.089 40.4719C989.823 39.2065 989.111 37.4907 989.109 35.7011Z" fill="#582467"/>
<path d="M1038.1 41.2292H1044.26V42.7012H1036.39V32.1412H1044.04V33.6132H1038.1V36.6532H1042.74V38.0932H1038.1V41.2292ZM1050.62 34.5412C1052.32 34.5412 1053.63 35.5172 1053.63 37.5172V42.7012H1051.92V38.0612C1051.92 36.4772 1051.18 35.9492 1050.21 35.9492C1049.15 35.9492 1048.03 36.6212 1048.03 38.4612V42.7012H1046.32V34.7012H1047.84L1047.92 36.0292C1048.46 34.9892 1049.47 34.5412 1050.62 34.5412Z" fill="#582467"/>
<path d="M1088.36 28.2012C1085.6 28.2012 1083.36 30.4379 1083.36 33.1974C1083.36 35.425 1084.23 40.7119 1092.85 46.0563C1093 46.1511 1093.18 46.2012 1093.36 46.2012C1093.54 46.2012 1093.72 46.1511 1093.87 46.0563C1102.48 40.7119 1103.36 35.425 1103.36 33.1974C1103.36 30.4379 1101.12 28.2012 1098.36 28.2012C1095.6 28.2012 1093.36 31.2292 1093.36 31.2292C1093.36 31.2292 1091.12 28.2012 1088.36 28.2012Z" stroke="#582467" stroke-width="1.5" stroke-linecap="round" stroke-linejoin="round"/>
<path d="M1148.36 26.6387C1146.27 26.6387 1144.23 27.2582 1142.49 28.4188C1140.75 29.5794 1139.4 31.229 1138.6 33.1591C1137.8 35.0891 1137.59 37.2129 1138 39.2618C1138.41 41.3107 1139.41 43.1928 1140.89 44.67C1142.37 46.1472 1144.25 47.1532 1146.3 47.5607C1148.35 47.9683 1150.47 47.7591 1152.4 46.9596C1154.33 46.1602 1155.98 44.8064 1157.14 43.0694C1158.3 41.3324 1158.92 39.2902 1158.92 37.2012C1158.92 34.4007 1157.81 31.7158 1155.82 29.7356C1153.84 27.7554 1151.16 26.6416 1148.36 26.6387ZM1142.88 44.2598C1143.47 43.3405 1144.28 42.584 1145.24 42.06C1146.19 41.536 1147.27 41.2613 1148.36 41.2613C1149.45 41.2613 1150.52 41.536 1151.48 42.06C1152.44 42.584 1153.25 43.3405 1153.84 44.2598C1152.27 45.4775 1150.34 46.1386 1148.36 46.1386C1146.38 46.1386 1144.45 45.4775 1142.88 44.2598ZM1145.11 36.3887C1145.11 35.7459 1145.3 35.1175 1145.66 34.5831C1146.01 34.0486 1146.52 33.632 1147.12 33.3861C1147.71 33.1401 1148.36 33.0757 1148.99 33.2011C1149.62 33.3265 1150.2 33.6361 1150.66 34.0906C1151.11 34.5451 1151.42 35.1242 1151.55 35.7546C1151.67 36.3851 1151.61 37.0385 1151.36 37.6324C1151.12 38.2263 1150.7 38.7338 1150.16 39.0909C1149.63 39.4481 1149 39.6387 1148.36 39.6387C1147.5 39.6387 1146.67 39.2963 1146.06 38.6868C1145.45 38.0773 1145.11 37.2506 1145.11 36.3887ZM1155.04 43.1334C1154.13 41.8203 1152.86 40.8044 1151.38 40.2135C1152.17 39.5865 1152.75 38.727 1153.04 37.7546C1153.32 36.7821 1153.3 35.7451 1152.97 34.7876C1152.63 33.8301 1152.01 32.9998 1151.19 32.4122C1150.36 31.8245 1149.37 31.5088 1148.36 31.5088C1147.35 31.5088 1146.36 31.8245 1145.53 32.4122C1144.71 32.9998 1144.08 33.8301 1143.75 34.7876C1143.42 35.7451 1143.4 36.7821 1143.68 37.7546C1143.97 38.727 1144.55 39.5865 1145.34 40.2135C1143.86 40.8044 1142.59 41.8203 1141.68 43.1334C1140.54 41.8458 1139.79 40.2546 1139.53 38.5514C1139.26 36.8483 1139.5 35.1058 1140.21 33.5338C1140.91 31.9619 1142.06 30.6274 1143.5 29.6912C1144.95 28.7549 1146.64 28.2568 1148.36 28.2568C1150.08 28.2568 1151.77 28.7549 1153.22 29.6912C1154.66 30.6274 1155.81 31.9619 1156.51 33.5338C1157.22 35.1058 1157.45 36.8483 1157.19 38.5514C1156.93 40.2546 1156.18 41.8458 1155.04 43.1334Z" fill="#582467"/>
<g clip-path="url(#clip1_1382_21695)">
<path d="M1200.36 45.4512C1200.36 45.7478 1200.27 46.0379 1200.11 46.2845C1199.94 46.5312 1199.71 46.7235 1199.43 46.837C1199.16 46.9505 1198.86 46.9802 1198.57 46.9223C1198.28 46.8645 1198.01 46.7216 1197.8 46.5118C1197.59 46.3021 1197.45 46.0348 1197.39 45.7438C1197.33 45.4528 1197.36 45.1512 1197.47 44.8771C1197.59 44.6031 1197.78 44.3688 1198.03 44.204C1198.27 44.0391 1198.56 43.9512 1198.86 43.9512C1199.26 43.9512 1199.64 44.1092 1199.92 44.3905C1200.2 44.6718 1200.36 45.0533 1200.36 45.4512ZM1208.61 43.9512C1208.31 43.9512 1208.02 44.0391 1207.78 44.204C1207.53 44.3688 1207.34 44.6031 1207.22 44.8771C1207.11 45.1512 1207.08 45.4528 1207.14 45.7438C1207.2 46.0348 1207.34 46.3021 1207.55 46.5118C1207.76 46.7216 1208.03 46.8645 1208.32 46.9223C1208.61 46.9802 1208.91 46.9505 1209.18 46.837C1209.46 46.7235 1209.69 46.5312 1209.86 46.2845C1210.02 46.0379 1210.11 45.7478 1210.11 45.4512C1210.11 45.0533 1209.95 44.6718 1209.67 44.3905C1209.39 44.1092 1209.01 43.9512 1208.61 43.9512ZM1213.08 32.1715L1210.4 40.863C1210.26 41.3238 1209.98 41.7271 1209.59 42.0132C1209.2 42.2993 1208.73 42.4528 1208.25 42.4512H1199.24C1198.75 42.4493 1198.28 42.2893 1197.89 41.9951C1197.5 41.7008 1197.21 41.2882 1197.08 40.819L1193.69 28.9512H1192.11C1191.91 28.9512 1191.72 28.8722 1191.58 28.7315C1191.44 28.5908 1191.36 28.4001 1191.36 28.2012C1191.36 28.0023 1191.44 27.8115 1191.58 27.6708C1191.72 27.5302 1191.91 27.4512 1192.11 27.4512H1193.69C1194.01 27.4523 1194.33 27.5588 1194.59 27.7548C1194.85 27.9509 1195.04 28.2259 1195.13 28.5387L1195.89 31.2012H1212.36C1212.48 31.2011 1212.59 31.2286 1212.7 31.2815C1212.8 31.3343 1212.89 31.411 1212.96 31.5054C1213.03 31.5998 1213.08 31.7092 1213.1 31.8249C1213.12 31.9406 1213.11 32.0593 1213.08 32.1715ZM1211.34 32.7012H1196.32L1198.52 40.4074C1198.56 40.5641 1198.66 40.7019 1198.79 40.8C1198.92 40.8981 1199.08 40.9511 1199.24 40.9512H1208.25C1208.41 40.9512 1208.57 40.8998 1208.7 40.8045C1208.83 40.7091 1208.92 40.5749 1208.97 40.4215L1211.34 32.7012Z" fill="#582467"/>
</g>
<defs>
<clipPath id="clip0_1382_21695">
<rect width="41" height="34" fill="white" transform="translate(12.3594 20.2012)"/>
</clipPath>
<clipPath id="clip1_1382_21695">
<rect width="24" height="24" fill="white" transform="translate(1191.36 25.2012)"/>
</clipPath>
</defs>
</svg>
