<svg width="25" height="25" viewBox="0 0 25 25" fill="none" xmlns="http://www.w3.org/2000/svg">
<g id="Frame" clip-path="url(#clip0_2617_3621)">
<path id="Vector" d="M9.35938 20.4512C9.35938 20.7478 9.2714 21.0379 9.10658 21.2845C8.94176 21.5312 8.70749 21.7235 8.4334 21.837C8.15931 21.9505 7.85771 21.9802 7.56674 21.9223C7.27577 21.8645 7.00849 21.7216 6.79872 21.5118C6.58894 21.3021 6.44607 21.0348 6.3882 20.7438C6.33032 20.4528 6.36002 20.1512 6.47356 19.8771C6.58709 19.6031 6.77935 19.3688 7.02602 19.204C7.27269 19.0391 7.5627 18.9512 7.85938 18.9512C8.2572 18.9512 8.63873 19.1092 8.92003 19.3905C9.20134 19.6718 9.35938 20.0533 9.35938 20.4512ZM17.6094 18.9512C17.3127 18.9512 17.0227 19.0391 16.776 19.204C16.5293 19.3688 16.3371 19.6031 16.2236 19.8771C16.11 20.1512 16.0803 20.4528 16.1382 20.7438C16.1961 21.0348 16.3389 21.3021 16.5487 21.5118C16.7585 21.7216 17.0258 21.8645 17.3167 21.9223C17.6077 21.9802 17.9093 21.9505 18.1834 21.837C18.4575 21.7235 18.6918 21.5312 18.8566 21.2845C19.0214 21.0379 19.1094 20.7478 19.1094 20.4512C19.1094 20.0533 18.9513 19.6718 18.67 19.3905C18.3887 19.1092 18.0072 18.9512 17.6094 18.9512ZM22.0766 7.17148L19.4019 15.863C19.2618 16.3238 18.9769 16.7271 18.5895 17.0132C18.2021 17.2993 17.7328 17.4528 17.2512 17.4512H8.24094C7.75248 17.4493 7.27775 17.2893 6.88785 16.9951C6.49795 16.7008 6.21386 16.2882 6.07812 15.819L2.68625 3.95117H1.10938C0.910463 3.95117 0.719697 3.87215 0.579045 3.7315C0.438393 3.59085 0.359375 3.40008 0.359375 3.20117C0.359375 3.00226 0.438393 2.81149 0.579045 2.67084C0.719697 2.53019 0.910463 2.45117 1.10938 2.45117H2.68625C3.01195 2.45225 3.32853 2.55879 3.58863 2.75483C3.84872 2.95087 4.03832 3.22587 4.12906 3.53867L4.88937 6.20117H21.3594C21.4767 6.20113 21.5925 6.22863 21.6973 6.28147C21.8021 6.3343 21.893 6.411 21.9628 6.50538C22.0325 6.59976 22.0792 6.7092 22.0989 6.82489C22.1187 6.94058 22.111 7.0593 22.0766 7.17148ZM20.3441 7.70117H5.31781L7.52 15.4074C7.5648 15.5641 7.65939 15.7019 7.78946 15.8C7.91954 15.8981 8.07802 15.9511 8.24094 15.9512H17.2512C17.4117 15.9512 17.568 15.8998 17.6971 15.8045C17.8262 15.7091 17.9213 15.5749 17.9684 15.4215L20.3441 7.70117Z" fill="#582467"/>
</g>
<defs>
<clipPath id="clip0_2617_3621">
<rect width="24" height="24" fill="white" transform="translate(0.359375 0.201172)"/>
</clipPath>
</defs>
</svg>
