<svg width="40" height="40" viewBox="0 0 40 40" fill="none" xmlns="http://www.w3.org/2000/svg">
<path d="M13.1553 15.184C14.3241 15.184 15.2716 14.2365 15.2716 13.0677C15.2716 11.8989 14.3241 10.9514 13.1553 10.9514C11.9866 10.9514 11.0391 11.8989 11.0391 13.0677C11.0391 14.2365 11.9866 15.184 13.1553 15.184Z" fill="#582467"/>
<path fill-rule="evenodd" clip-rule="evenodd" d="M17.4602 28.4344V16.6932H20.9596V18.2988H21.0089C21.4955 17.3771 22.6851 16.4031 24.4599 16.4031C28.1566 16.4031 28.8376 18.8337 28.8376 21.9965V28.4353H25.1902V22.7248C25.1902 21.3639 25.167 19.6123 23.2935 19.6123C21.3939 19.6123 21.1056 21.0961 21.1056 22.6281V28.4344H17.4602ZM15.1708 16.6932H11.5195V28.4344H15.1708V16.6932Z" fill="#582467"/>
<rect x="0.5" y="0.5" width="39" height="39" rx="19.5" stroke="#582467"/>
</svg>
