<svg width="40" height="40" viewBox="0 0 40 40" fill="none" xmlns="http://www.w3.org/2000/svg">
<path d="M28.746 14.4909C28.1023 14.7876 27.4085 14.9825 26.6896 15.0757C27.4252 14.6265 27.9937 13.9146 28.2612 13.0586C27.5673 13.4824 26.7983 13.779 25.9874 13.9485C25.327 13.2197 24.3991 12.7959 23.3458 12.7959C21.3813 12.7959 19.7762 14.4231 19.7762 16.4317C19.7762 16.7199 19.8097 16.9996 19.8682 17.2623C16.8922 17.1097 14.2422 15.6605 12.4783 13.4654C12.169 13.9994 11.9935 14.6265 11.9935 15.2876C11.9935 16.5504 12.6204 17.6691 13.5901 18.3047C12.9966 18.3047 12.4449 18.1352 11.96 17.881V17.9064C11.96 19.6692 13.1972 21.1439 14.8357 21.4744C14.3097 21.6204 13.7574 21.6407 13.2223 21.5338C13.4494 22.2562 13.894 22.8884 14.4938 23.3414C15.0936 23.7945 15.8183 24.0455 16.5661 24.0593C15.2985 25.0767 13.7272 25.6267 12.1105 25.6188C11.8263 25.6188 11.542 25.6018 11.2578 25.5679C12.8461 26.6019 14.7354 27.2036 16.7584 27.2036C23.3458 27.2036 26.9654 21.6609 26.9654 16.8555C26.9654 16.6945 26.9654 16.5419 26.9571 16.3809C27.6593 15.8724 28.2612 15.2283 28.746 14.4909Z" fill="#582467"/>
<rect x="0.5" y="0.5" width="39" height="39" rx="19.5" stroke="#582467"/>
</svg>
