<svg width="40" height="40" viewBox="0 0 40 40" fill="none" xmlns="http://www.w3.org/2000/svg">
<path d="M20.0606 13.3784H20.1638C21.1164 13.382 25.9431 13.4173 27.2445 13.7732C27.6379 13.8818 27.9964 14.0935 28.2842 14.3871C28.572 14.6807 28.7789 15.046 28.8843 15.4464C29.0014 15.8942 29.0837 16.4869 29.1393 17.0985L29.1509 17.221L29.1764 17.5274L29.1856 17.6499C29.261 18.727 29.2702 19.7356 29.2714 19.956V20.0444C29.2702 20.273 29.2598 21.35 29.1764 22.4718L29.1671 22.5955L29.1567 22.718C29.0987 23.3921 29.013 24.0614 28.8843 24.5539C28.7792 24.9545 28.5724 25.32 28.2846 25.6136C27.9968 25.9073 27.6381 26.1189 27.2445 26.2272C25.9002 26.5948 20.7907 26.6208 20.0826 26.6219H19.9181C19.56 26.6219 18.0789 26.6149 16.526 26.5607L16.329 26.5536L16.2282 26.5489L16.03 26.5406L15.8319 26.5324C14.5455 26.4746 13.3206 26.3815 12.7562 26.226C12.3627 26.1178 12.0042 25.9064 11.7164 25.613C11.4286 25.3195 11.2217 24.9543 11.1164 24.5539C10.9877 24.0625 10.902 23.3921 10.844 22.718L10.8348 22.5943L10.8255 22.4718C10.7683 21.6733 10.7366 20.8732 10.7305 20.0726L10.7305 19.9277C10.7328 19.6744 10.7421 18.7988 10.8046 17.8326L10.8127 17.7112L10.8162 17.6499L10.8255 17.5274L10.851 17.221L10.8626 17.0985C10.9182 16.4869 11.0005 15.893 11.1175 15.4464C11.2226 15.0458 11.4295 14.6804 11.7173 14.3867C12.0051 14.093 12.3638 13.8814 12.7573 13.7732C13.3217 13.62 14.5467 13.5257 15.833 13.4668L16.03 13.4585L16.2294 13.4515L16.329 13.4479L16.5272 13.4397C17.6301 13.4036 18.7335 13.3836 19.8369 13.3796H20.0606V13.3784ZM18.1473 17.1609V22.8382L22.9648 20.0008L18.1473 17.1609Z" fill="#582467"/>
<rect x="0.5" y="0.5" width="39" height="39" rx="19.5" stroke="#582467"/>
</svg>
