<svg width="40" height="40" viewBox="0 0 40 40" fill="none" xmlns="http://www.w3.org/2000/svg">
<g clip-path="url(#clip0_1797_14153)">
<path d="M19.6125 11.3472C20.5941 11.332 21.57 11.341 22.5448 11.332C22.6039 12.4801 23.0168 13.6495 23.8571 14.4612C24.6958 15.2932 25.8821 15.674 27.0364 15.8028V18.8228C25.9547 18.7874 24.868 18.5624 23.8864 18.0967C23.4589 17.9032 23.0606 17.654 22.6708 17.3992C22.6658 19.5907 22.6798 21.7793 22.6568 23.9618C22.5983 25.0103 22.2523 26.0538 21.6426 26.9178C20.6616 28.3561 18.9589 29.2938 17.2101 29.323C16.1374 29.3843 15.0658 29.0918 14.1518 28.553C12.637 27.6597 11.571 26.0245 11.4158 24.2695C11.3962 23.8978 11.3932 23.5255 11.4068 23.1535C11.5418 21.7265 12.2477 20.3613 13.3435 19.4326C14.5855 18.3509 16.3253 17.8357 17.9543 18.1405C17.9695 19.2515 17.925 20.3613 17.925 21.4722C17.1808 21.2315 16.3112 21.299 15.661 21.7507C15.1852 22.0641 14.8257 22.5252 14.6378 23.063C14.4825 23.4432 14.527 23.8657 14.536 24.2695C14.7143 25.5003 15.8978 26.5347 17.1611 26.4228C17.9987 26.4138 18.8014 25.9278 19.2379 25.2162C19.3791 24.967 19.5371 24.7122 19.5456 24.4192C19.6193 23.0776 19.59 21.7417 19.599 20.4001C19.6052 17.3767 19.59 14.3617 19.6131 11.3478L19.6125 11.3472Z" fill="#582467"/>
</g>
<rect x="0.5" y="0.5" width="39" height="39" rx="19.5" stroke="#582467"/>
<defs>
<clipPath id="clip0_1797_14153">
<rect width="18" height="18" fill="white" transform="translate(10.2148 11.332)"/>
</clipPath>
</defs>
</svg>
