<svg width="40" height="40" viewBox="0 0 40 40" fill="none" xmlns="http://www.w3.org/2000/svg">
<path fill-rule="evenodd" clip-rule="evenodd" d="M19.9986 14.8687C17.1643 14.8687 14.8672 17.1658 14.8672 20.0001C14.8672 22.8344 17.1643 25.1315 19.9986 25.1315C22.8329 25.1315 25.13 22.8344 25.13 20.0001C25.13 17.1658 22.8329 14.8687 19.9986 14.8687ZM19.9986 23.3373C18.1586 23.3373 16.6615 21.8401 16.6615 20.0001C16.6615 18.1601 18.1586 16.6629 19.9986 16.6629C21.8386 16.6629 23.3358 18.1601 23.3358 20.0001C23.3358 21.8401 21.8386 23.3373 19.9986 23.3373Z" fill="#582467"/>
<path d="M26.5367 14.6631C26.5367 15.3259 25.9995 15.8631 25.3367 15.8631C24.6741 15.8631 24.1367 15.3259 24.1367 14.6631C24.1367 14.0004 24.6741 13.4631 25.3367 13.4631C25.9995 13.4631 26.5367 14.0004 26.5367 14.6631Z" fill="#582467"/>
<path fill-rule="evenodd" clip-rule="evenodd" d="M20 10C17.28 10 16.9486 10.0114 15.8743 10.0571C14.8114 10.1143 14.08 10.2743 13.4514 10.5257C12.7886 10.7771 12.24 11.12 11.68 11.68C11.12 12.24 10.7771 12.7886 10.5257 13.4514C10.2743 14.08 10.1143 14.8114 10.0571 15.8743C10.0114 16.9486 10 17.28 10 20C10 22.72 10.0114 23.0514 10.0571 24.1257C10.1029 25.1886 10.2743 25.92 10.5257 26.5486C10.7771 27.2114 11.12 27.76 11.68 28.32C12.24 28.88 12.7886 29.2229 13.4514 29.4743C14.0914 29.7257 14.8114 29.8857 15.8743 29.9429C16.9371 29.9886 17.28 30 20 30C22.72 30 23.0514 29.9886 24.1257 29.9429C25.1886 29.8971 25.92 29.7257 26.5486 29.4743C27.2114 29.2229 27.76 28.88 28.32 28.32C28.88 27.76 29.2229 27.2114 29.4743 26.5486C29.7257 25.9086 29.8857 25.1886 29.9429 24.1257C29.9886 23.0629 30 22.72 30 20C30 17.28 29.9886 16.9486 29.9429 15.8743C29.8971 14.8114 29.7257 14.08 29.4743 13.4514C29.2229 12.7886 28.88 12.24 28.32 11.68C27.76 11.12 27.2114 10.7771 26.5486 10.5257C25.9086 10.2743 25.1886 10.1143 24.1257 10.0571C23.0514 10.0114 22.72 10 20 10ZM20 11.8057C22.6743 11.8057 22.9829 11.8171 24.0457 11.8629C25.0171 11.9086 25.5543 12.0686 25.8971 12.2057C26.3657 12.3886 26.6971 12.6057 27.0514 12.9486C27.4057 13.3029 27.6229 13.6343 27.7943 14.1029C27.9314 14.4571 28.0914 14.9829 28.1371 15.9543C28.1829 17.0057 28.1943 17.3257 28.1943 20C28.1943 22.6743 28.1829 22.9829 28.1371 24.0457C28.0914 25.0171 27.9314 25.5543 27.7943 25.8971C27.6114 26.3657 27.3943 26.6971 27.0514 27.0514C26.6971 27.4057 26.3657 27.6229 25.8971 27.7943C25.5429 27.9314 25.0171 28.0914 24.0457 28.1371C22.9943 28.1829 22.6743 28.1943 20 28.1943C17.3257 28.1943 17.0171 28.1829 15.9543 28.1371C14.9829 28.0914 14.4457 27.9314 14.1029 27.7943C13.6343 27.6114 13.3029 27.3943 12.9486 27.0514C12.5943 26.6971 12.3771 26.3657 12.2057 25.8971C12.0686 25.5429 11.9086 25.0171 11.8629 24.0457C11.8171 22.9943 11.8057 22.6743 11.8057 20C11.8057 17.3257 11.8171 17.0171 11.8629 15.9543C11.9086 14.9829 12.0686 14.4457 12.2057 14.1029C12.3886 13.6343 12.6057 13.3029 12.9486 12.9486C13.3029 12.5943 13.6343 12.3771 14.1029 12.2057C14.4571 12.0686 14.9829 11.9086 15.9543 11.8629C17.0171 11.8171 17.3257 11.8057 20 11.8057Z" fill="#582467"/>
<rect x="0.5" y="0.5" width="39" height="39" rx="19.5" stroke="#582467"/>
</svg>
