<svg width="41" height="40" viewBox="0 0 41 40" fill="none" xmlns="http://www.w3.org/2000/svg">
<path fill-rule="evenodd" clip-rule="evenodd" d="M20.2769 14.8687C17.4426 14.8687 15.1455 17.1658 15.1455 20.0001C15.1455 22.8344 17.4426 25.1315 20.2769 25.1315C23.1112 25.1315 25.4084 22.8344 25.4084 20.0001C25.4084 17.1658 23.1112 14.8687 20.2769 14.8687ZM20.2769 23.3373C18.4369 23.3373 16.9398 21.8401 16.9398 20.0001C16.9398 18.1601 18.4369 16.6629 20.2769 16.6629C22.1169 16.6629 23.6141 18.1601 23.6141 20.0001C23.6141 21.8401 22.1169 23.3373 20.2769 23.3373Z" fill="#FDF8F6"/>
<path d="M26.8144 14.6631C26.8144 15.3259 26.2772 15.8631 25.6144 15.8631C24.9518 15.8631 24.4144 15.3259 24.4144 14.6631C24.4144 14.0004 24.9518 13.4631 25.6144 13.4631C26.2772 13.4631 26.8144 14.0004 26.8144 14.6631Z" fill="#FDF8F6"/>
<path fill-rule="evenodd" clip-rule="evenodd" d="M20.2773 10C17.5573 10 17.2259 10.0114 16.1516 10.0571C15.0888 10.1143 14.3573 10.2743 13.7288 10.5257C13.0659 10.7771 12.5173 11.12 11.9573 11.68C11.3973 12.24 11.0545 12.7886 10.8031 13.4514C10.5516 14.08 10.3916 14.8114 10.3345 15.8743C10.2888 16.9486 10.2773 17.28 10.2773 20C10.2773 22.72 10.2888 23.0514 10.3345 24.1257C10.3802 25.1886 10.5516 25.92 10.8031 26.5486C11.0545 27.2114 11.3973 27.76 11.9573 28.32C12.5173 28.88 13.0659 29.2229 13.7288 29.4743C14.3688 29.7257 15.0888 29.8857 16.1516 29.9429C17.2145 29.9886 17.5573 30 20.2773 30C22.9973 30 23.3288 29.9886 24.403 29.9429C25.4659 29.8971 26.1973 29.7257 26.8259 29.4743C27.4888 29.2229 28.0373 28.88 28.5973 28.32C29.1573 27.76 29.5002 27.2114 29.7517 26.5486C30.003 25.9086 30.163 25.1886 30.2202 24.1257C30.2659 23.0629 30.2773 22.72 30.2773 20C30.2773 17.28 30.2659 16.9486 30.2202 15.8743C30.1745 14.8114 30.003 14.08 29.7517 13.4514C29.5002 12.7886 29.1573 12.24 28.5973 11.68C28.0373 11.12 27.4888 10.7771 26.8259 10.5257C26.1859 10.2743 25.4659 10.1143 24.403 10.0571C23.3288 10.0114 22.9973 10 20.2773 10ZM20.2773 11.8057C22.9517 11.8057 23.2602 11.8171 24.323 11.8629C25.2945 11.9086 25.8317 12.0686 26.1745 12.2057C26.643 12.3886 26.9745 12.6057 27.3288 12.9486C27.683 13.3029 27.9002 13.6343 28.0717 14.1029C28.2088 14.4571 28.3688 14.9829 28.4145 15.9543C28.4602 17.0057 28.4717 17.3257 28.4717 20C28.4717 22.6743 28.4602 22.9829 28.4145 24.0457C28.3688 25.0171 28.2088 25.5543 28.0717 25.8971C27.8888 26.3657 27.6717 26.6971 27.3288 27.0514C26.9745 27.4057 26.643 27.6229 26.1745 27.7943C25.8202 27.9314 25.2945 28.0914 24.323 28.1371C23.2717 28.1829 22.9517 28.1943 20.2773 28.1943C17.6031 28.1943 17.2945 28.1829 16.2316 28.1371C15.2602 28.0914 14.7231 27.9314 14.3802 27.7943C13.9116 27.6114 13.5802 27.3943 13.2259 27.0514C12.8716 26.6971 12.6545 26.3657 12.4831 25.8971C12.3459 25.5429 12.1859 25.0171 12.1402 24.0457C12.0945 22.9943 12.0831 22.6743 12.0831 20C12.0831 17.3257 12.0945 17.0171 12.1402 15.9543C12.1859 14.9829 12.3459 14.4457 12.4831 14.1029C12.6659 13.6343 12.8831 13.3029 13.2259 12.9486C13.5802 12.5943 13.9116 12.3771 14.3802 12.2057C14.7345 12.0686 15.2602 11.9086 16.2316 11.8629C17.2945 11.8171 17.6031 11.8057 20.2773 11.8057Z" fill="#FDF8F6"/>
<rect x="0.777344" y="0.5" width="39" height="39" rx="19.5" stroke="#FDF8F6"/>
</svg>
