<svg width="21" height="21" viewBox="0 0 21 21" fill="none" xmlns="http://www.w3.org/2000/svg">
<g clip-path="url(#clip0_2663_172)">
<path d="M8.16797 17.3164C8.16797 17.5636 8.09466 17.8053 7.95731 18.0109C7.81995 18.2164 7.62473 18.3766 7.39632 18.4713C7.16792 18.5659 6.91658 18.5906 6.67411 18.5424C6.43163 18.4942 6.2089 18.3751 6.03409 18.2003C5.85927 18.0255 5.74022 17.8027 5.69199 17.5603C5.64376 17.3178 5.66851 17.0665 5.76312 16.8381C5.85773 16.6096 6.01794 16.4144 6.22351 16.2771C6.42907 16.1397 6.67074 16.0664 6.91797 16.0664C7.24949 16.0664 7.56743 16.1981 7.80185 16.4325C8.03627 16.6669 8.16797 16.9849 8.16797 17.3164ZM15.043 16.0664C14.7957 16.0664 14.5541 16.1397 14.3485 16.2771C14.1429 16.4144 13.9827 16.6096 13.8881 16.8381C13.7935 17.0665 13.7688 17.3178 13.817 17.5603C13.8652 17.8027 13.9843 18.0255 14.1591 18.2003C14.3339 18.3751 14.5566 18.4942 14.7991 18.5424C15.0416 18.5906 15.2929 18.5659 15.5213 18.4713C15.7497 18.3766 15.945 18.2164 16.0823 18.0109C16.2197 17.8053 16.293 17.5636 16.293 17.3164C16.293 16.9849 16.1613 16.6669 15.9269 16.4325C15.6924 16.1981 15.3745 16.0664 15.043 16.0664ZM18.7656 6.25L16.5367 13.493C16.42 13.8769 16.1826 14.213 15.8597 14.4514C15.5369 14.6898 15.1458 14.8178 14.7445 14.8164H7.23594C6.82889 14.8149 6.43328 14.6815 6.10837 14.4363C5.78345 14.1911 5.54671 13.8473 5.43359 13.4562L2.60703 3.56641H1.29297C1.12721 3.56641 0.968237 3.50056 0.851027 3.38335C0.733817 3.26614 0.667969 3.10717 0.667969 2.94141C0.667969 2.77565 0.733817 2.61667 0.851027 2.49946C0.968237 2.38225 1.12721 2.31641 1.29297 2.31641H2.60703C2.87844 2.31731 3.14227 2.40608 3.35901 2.56945C3.57575 2.73282 3.73376 2.96199 3.80937 3.22266L4.44297 5.44141H18.168C18.2658 5.44137 18.3622 5.46429 18.4496 5.50832C18.5369 5.55235 18.6127 5.61626 18.6708 5.69491C18.7289 5.77356 18.7678 5.86476 18.7843 5.96117C18.8007 6.05758 18.7944 6.15651 18.7656 6.25ZM17.3219 6.69141H4.8L6.63516 13.1133C6.67249 13.2438 6.75132 13.3586 6.85971 13.4404C6.9681 13.5221 7.10017 13.5664 7.23594 13.5664H14.7445C14.8783 13.5665 15.0085 13.5236 15.1161 13.4442C15.2236 13.3647 15.3029 13.2528 15.3422 13.125L17.3219 6.69141Z" fill="#FDF8F6"/>
</g>
<defs>
<clipPath id="clip0_2663_172">
<rect width="20" height="20" fill="white" transform="translate(0.667969 0.441406)"/>
</clipPath>
</defs>
</svg>
