<svg width="41" height="40" viewBox="0 0 41 40" fill="none" xmlns="http://www.w3.org/2000/svg">
<path d="M13.4313 15.184C14.6001 15.184 15.5476 14.2365 15.5476 13.0677C15.5476 11.8989 14.6001 10.9514 13.4313 10.9514C12.2626 10.9514 11.3151 11.8989 11.3151 13.0677C11.3151 14.2365 12.2626 15.184 13.4313 15.184Z" fill="white"/>
<path fill-rule="evenodd" clip-rule="evenodd" d="M17.7373 28.4344V16.6932H21.2367V18.2988H21.286C21.7726 17.3771 22.9622 16.4031 24.737 16.4031C28.4337 16.4031 29.1147 18.8337 29.1147 21.9965V28.4353H25.4673V22.7248C25.4673 21.3639 25.4441 19.6123 23.5706 19.6123C21.671 19.6123 21.3827 21.0961 21.3827 22.6281V28.4344H17.7373ZM15.4479 16.6932H11.7966V28.4344H15.4479V16.6932Z" fill="white"/>
<rect x="0.777344" y="0.5" width="39" height="39" rx="19.5" stroke="#FDF8F6"/>
</svg>
