<svg width="42" height="35" viewBox="0 0 42 35" fill="none" xmlns="http://www.w3.org/2000/svg">
<g clip-path="url(#clip0_2617_3587)">
<mask id="mask0_2617_3587" style="mask-type:luminance" maskUnits="userSpaceOnUse" x="6" y="0" width="31" height="34">
<path d="M36.3473 0.199951H6.28857V33.0327H36.3473V0.199951Z" fill="white"/>
</mask>
<g mask="url(#mask0_2617_3587)">
<path fill-rule="evenodd" clip-rule="evenodd" d="M30.6856 29.4054C30.5703 30.3368 30.3815 31.2585 30.1207 32.1626C30.0493 32.4135 29.9416 32.6536 29.8007 32.876C30.6286 32.615 31.4178 32.253 32.1488 31.7988C34.9447 30.0661 36.3433 27.6046 36.3433 24.395C36.3433 22.3529 35.7924 20.5169 34.6905 18.8871C33.5886 17.2572 31.6991 15.4782 29.022 13.5501L27.7834 12.6683C25.9652 11.3607 24.723 10.2621 24.0568 9.37258C23.3844 8.47923 23.0509 7.53447 23.0509 6.54471C23.0509 5.2379 23.5265 4.18088 24.4778 3.37365C25.429 2.56643 26.7245 2.16024 28.3644 2.1551C30.4448 2.1551 32.0708 2.85178 33.2273 4.24258C33.9993 5.1822 34.3839 6.11411 34.3839 7.05245C34.3839 7.5666 34.5359 7.82368 34.8317 7.82368C35.1626 7.82368 35.3213 7.39693 35.3213 6.54986C35.3213 5.2169 35.3482 4.01635 35.4114 2.95076C35.4746 1.88517 35.5001 1.38258 35.5001 1.44171C35.5001 1.21162 35.293 1.04709 34.8734 0.92755C32.9401 0.451483 30.9525 0.206669 28.9561 0.19873C25.8898 0.19873 23.4055 0.949398 21.503 2.45074C19.6004 3.95208 18.6456 5.8806 18.6384 8.23629C18.6384 11.67 20.8404 15.0313 25.2443 18.3202L27.2966 19.8498C30.2113 22.035 31.6695 24.3058 31.6713 26.6624C31.679 27.6573 31.3313 28.625 30.6856 29.4054Z" fill="#E7414B"/>
<path fill-rule="evenodd" clip-rule="evenodd" d="M16.1181 13.068V20.558C16.1181 23.7612 16.1629 25.8752 16.2525 26.9001C16.3695 28.4284 16.6385 29.3681 17.0595 29.7087C17.8045 30.3321 19.6012 30.6483 22.4604 30.6483C25.1675 30.6483 26.9091 30.2473 27.6811 29.4593C28.336 28.7768 28.7206 27.9297 28.8457 26.9065C28.9076 26.4798 29.0649 26.2638 29.3339 26.2638C29.5746 26.2638 29.6929 26.5068 29.6929 26.9862C29.6991 28.6359 29.473 30.2788 29.0205 31.8707C28.8412 32.4706 28.4826 32.8249 27.9446 32.9337C27.7375 32.9929 27.1525 33.0186 26.1963 33.0186C23.8133 33.0186 21.2993 32.9757 18.6544 32.89C16.0096 32.8043 14.1936 32.7615 13.2065 32.7615C12.9375 32.7615 12.097 32.7833 10.6849 32.8271C9.27279 32.8733 8.23995 32.8926 7.59173 32.8926C6.99327 32.8926 6.69741 32.7486 6.69741 32.4659C6.69741 32.2692 7.0269 32.1381 7.68184 32.0802C8.12967 32.0211 8.5775 31.9825 9.01861 31.9517C9.70045 31.8077 10.1335 31.0326 10.3124 29.6149C10.4639 28.5197 10.5369 25.5076 10.5316 20.5785V13.068C10.5316 7.99326 10.502 4.98673 10.4428 4.04839C10.3809 2.99823 10.0568 2.28997 9.45703 1.92235C8.9823 1.63957 8.17674 1.4956 7.04707 1.4956C6.5441 1.4956 6.28857 1.36706 6.28857 1.10998C6.28857 0.852905 6.62613 0.724365 7.28107 0.724365C8.05301 0.724365 9.18941 0.743647 10.6768 0.789922C12.1642 0.836196 13.0733 0.869615 13.3934 0.869615C13.6893 0.869615 14.6199 0.850333 16.1826 0.804059C17.7453 0.757785 18.8414 0.738507 19.4614 0.738507C20.0813 0.738507 20.4027 0.867046 20.4027 1.12412C20.4027 1.3812 20.1338 1.50974 19.5958 1.50974C19.0103 1.504 18.4253 1.54701 17.8475 1.63828C16.8344 1.80967 16.283 2.61689 16.1934 4.05996C16.1387 5.00258 16.1113 8.01126 16.1113 13.086" fill="#582467"/>
</g>
</g>
<defs>
<clipPath id="clip0_2617_3587">
<rect width="41" height="34" fill="white" transform="translate(0.359375 0.201172)"/>
</clipPath>
</defs>
</svg>
