<svg width="27" height="27" viewBox="0 0 27 27" fill="none" xmlns="http://www.w3.org/2000/svg">
<g id="Frame">
<path id="Vector" d="M13.3594 2.63867C11.2703 2.63867 9.22816 3.25815 7.49117 4.41877C5.75417 5.5794 4.40035 7.22903 3.6009 9.15908C2.80145 11.0891 2.59228 13.2129 2.99984 15.2618C3.40739 17.3107 4.41337 19.1928 5.89056 20.67C7.36776 22.1472 9.24981 23.1532 11.2987 23.5607C13.3477 23.9683 15.4714 23.7591 17.4015 22.9596C19.3315 22.1602 20.9812 20.8064 22.1418 19.0694C23.3024 17.3324 23.9219 15.2902 23.9219 13.2012C23.9189 10.4007 22.8051 7.71583 20.8249 5.73562C18.8447 3.75541 16.1598 2.64163 13.3594 2.63867ZM7.88313 20.2598C8.47091 19.3405 9.28063 18.584 10.2377 18.06C11.1947 17.536 12.2683 17.2613 13.3594 17.2613C14.4505 17.2613 15.524 17.536 16.4811 18.06C17.4381 18.584 18.2479 19.3405 18.8356 20.2598C17.2699 21.4775 15.3429 22.1386 13.3594 22.1386C11.3758 22.1386 9.44888 21.4775 7.88313 20.2598ZM10.1094 12.3887C10.1094 11.7459 10.3 11.1175 10.6571 10.5831C11.0142 10.0486 11.5218 9.63205 12.1157 9.38606C12.7095 9.14008 13.363 9.07572 13.9934 9.20112C14.6239 9.32652 15.203 9.63605 15.6575 10.0906C16.112 10.5451 16.4215 11.1242 16.5469 11.7546C16.6723 12.3851 16.608 13.0385 16.362 13.6324C16.116 14.2263 15.6994 14.7338 15.165 15.0909C14.6305 15.4481 14.0022 15.6387 13.3594 15.6387C12.4974 15.6387 11.6708 15.2963 11.0613 14.6868C10.4518 14.0773 10.1094 13.2506 10.1094 12.3887ZM20.0381 19.1334C19.132 17.8203 17.8578 16.8044 16.3758 16.2135C17.1718 15.5865 17.7527 14.727 18.0377 13.7546C18.3226 12.7821 18.2974 11.7451 17.9657 10.7876C17.6339 9.83011 17.012 8.99982 16.1864 8.41218C15.3609 7.82455 14.3727 7.50877 13.3594 7.50877C12.346 7.50877 11.3579 7.82455 10.5323 8.41218C9.7068 8.99982 9.08489 9.83011 8.7531 10.7876C8.42131 11.7451 8.39614 12.7821 8.68108 13.7546C8.96602 14.727 9.54691 15.5865 10.343 16.2135C8.86099 16.8044 7.5868 17.8203 6.68063 19.1334C5.53558 17.8458 4.78717 16.2546 4.52552 14.5514C4.26387 12.8483 4.50013 11.1058 5.20586 9.53385C5.91159 7.96187 7.05669 6.62741 8.50327 5.69117C9.94986 4.75493 11.6363 4.25681 13.3594 4.25681C15.0825 4.25681 16.7689 4.75493 18.2155 5.69117C19.6621 6.62741 20.8072 7.96187 21.5129 9.53385C22.2186 11.1058 22.4549 12.8483 22.1932 14.5514C21.9316 16.2546 21.1832 17.8458 20.0381 19.1334Z" fill="#582467"/>
</g>
</svg>
