<svg width="20" height="21" viewBox="0 0 20 21" fill="none" xmlns="http://www.w3.org/2000/svg">
<g id="Frame">
<path id="Vector" d="M15.4688 5.57385V13.6989C15.4688 13.8232 15.4194 13.9424 15.3315 14.0303C15.2436 14.1182 15.1243 14.1676 15 14.1676C14.8757 14.1676 14.7565 14.1182 14.6686 14.0303C14.5807 13.9424 14.5313 13.8232 14.5313 13.6989V6.7051L5.33128 15.9051C5.24242 15.9879 5.12489 16.033 5.00345 16.0308C4.88201 16.0287 4.76615 15.9795 4.68026 15.8936C4.59438 15.8077 4.54518 15.6919 4.54304 15.5704C4.5409 15.449 4.58598 15.3315 4.66878 15.2426L13.8688 6.0426H6.87503C6.75071 6.0426 6.63148 5.99322 6.54357 5.90531C6.45566 5.8174 6.40628 5.69817 6.40628 5.57385C6.40628 5.44953 6.45566 5.3303 6.54357 5.2424C6.63148 5.15449 6.75071 5.1051 6.87503 5.1051H15C15.1243 5.1051 15.2436 5.15449 15.3315 5.2424C15.4194 5.3303 15.4688 5.44953 15.4688 5.57385Z" fill="#582467"/>
</g>
</svg>
