<svg width="49" height="49" viewBox="0 0 49 49" fill="none" xmlns="http://www.w3.org/2000/svg">
<path d="M32.0085 26.0987L25.2585 32.8487C25.153 32.954 25.01 33.0132 24.861 33.0132C24.7119 33.0132 24.5689 32.954 24.4635 32.8487L17.7135 26.0987C17.6141 25.992 17.56 25.851 17.5626 25.7053C17.5652 25.5596 17.6242 25.4205 17.7273 25.3175C17.8303 25.2144 17.9694 25.1554 18.1151 25.1528C18.2608 25.1502 18.4018 25.2043 18.5085 25.3037L24.2985 31.0927V15.9512C24.2985 15.802 24.3577 15.6589 24.4632 15.5534C24.5687 15.4479 24.7118 15.3887 24.861 15.3887C25.0102 15.3887 25.1532 15.4479 25.2587 15.5534C25.3642 15.6589 25.4235 15.802 25.4235 15.9512V31.0927L31.2135 25.3037C31.3201 25.2043 31.4611 25.1502 31.6069 25.1528C31.7526 25.1554 31.8916 25.2144 31.9947 25.3175C32.0977 25.4205 32.1568 25.5596 32.1594 25.7053C32.1619 25.851 32.1078 25.992 32.0085 26.0987Z" fill="white"/>
<rect x="1.35938" y="0.701172" width="47" height="47" rx="11.5" stroke="white"/>
</svg>
