<svg width="25" height="25" viewBox="0 0 25 25" fill="none" xmlns="http://www.w3.org/2000/svg">
<g id="Frame">
<path id="Vector" d="M21.89 20.6705L17.1959 15.9774C18.5564 14.344 19.2349 12.2489 19.0901 10.1281C18.9453 8.00721 17.9884 6.02382 16.4185 4.59049C14.8486 3.15716 12.7865 2.38425 10.6613 2.43255C8.536 2.48085 6.51118 3.34664 5.00801 4.84981C3.50485 6.35298 2.63906 8.3778 2.59076 10.5031C2.54246 12.6283 3.31536 14.6904 4.74869 16.2603C6.18202 17.8302 8.16542 18.7871 10.2863 18.9319C12.4071 19.0767 14.5022 18.3982 16.1356 17.0377L20.8287 21.7318C20.8984 21.8014 20.9811 21.8567 21.0722 21.8944C21.1632 21.9321 21.2608 21.9516 21.3593 21.9516C21.4579 21.9516 21.5555 21.9321 21.6465 21.8944C21.7376 21.8567 21.8203 21.8014 21.89 21.7318C21.9597 21.6621 22.0149 21.5794 22.0526 21.4883C22.0904 21.3973 22.1098 21.2997 22.1098 21.2011C22.1098 21.1026 22.0904 21.005 22.0526 20.914C22.0149 20.8229 21.9597 20.7402 21.89 20.6705ZM4.10934 10.7011C4.10934 9.36612 4.50523 8.06107 5.24692 6.95104C5.98862 5.84101 7.04283 4.97585 8.27623 4.46495C9.50963 3.95406 10.8668 3.82039 12.1762 4.08084C13.4856 4.34129 14.6883 4.98417 15.6323 5.92817C16.5763 6.87217 17.2192 8.07491 17.4796 9.38428C17.7401 10.6937 17.6064 12.0509 17.0955 13.2843C16.5846 14.5177 15.7195 15.5719 14.6094 16.3136C13.4994 17.0553 12.1944 17.4511 10.8593 17.4511C9.06974 17.4492 7.35401 16.7374 6.08857 15.4719C4.82313 14.2065 4.11133 12.4907 4.10934 10.7011Z" fill="#582467"/>
</g>
</svg>
