<svg width="41" height="40" viewBox="0 0 41 40" fill="none" xmlns="http://www.w3.org/2000/svg">
<g clip-path="url(#clip0_1382_21266)">
<path d="M19.8905 11.3472C20.872 11.332 21.848 11.341 22.8228 11.332C22.8818 12.4801 23.2947 13.6495 24.1351 14.4612C24.9738 15.2932 26.1601 15.674 27.3143 15.8028V18.8228C26.2327 18.7874 25.1459 18.5624 24.1643 18.0967C23.7368 17.9032 23.3386 17.654 22.9488 17.3992C22.9437 19.5907 22.9578 21.7793 22.9347 23.9618C22.8762 25.0103 22.5303 26.0538 21.9205 26.9178C20.9395 28.3561 19.2368 29.2938 17.488 29.323C16.4153 29.3843 15.3438 29.0918 14.4297 28.553C12.9149 27.6597 11.849 26.0245 11.6937 24.2695C11.6742 23.8978 11.6712 23.5255 11.6847 23.1535C11.8197 21.7265 12.5257 20.3613 13.6214 19.4326C14.8634 18.3509 16.6032 17.8357 18.2322 18.1405C18.2474 19.2515 18.203 20.3613 18.203 21.4722C17.4588 21.2315 16.5892 21.299 15.9389 21.7507C15.4632 22.0641 15.1036 22.5252 14.9157 23.063C14.7605 23.4432 14.8049 23.8657 14.8139 24.2695C14.9922 25.5003 16.1757 26.5347 17.4391 26.4228C18.2767 26.4138 19.0793 25.9278 19.5158 25.2162C19.657 24.967 19.8151 24.7122 19.8235 24.4192C19.8972 23.0776 19.868 21.7417 19.877 20.4001C19.8832 17.3767 19.868 14.3617 19.891 11.3478L19.8905 11.3472Z" fill="white"/>
</g>
<rect x="0.777344" y="0.5" width="39" height="39" rx="19.5" stroke="#FDF8F6"/>
<defs>
<clipPath id="clip0_1382_21266">
<rect width="18" height="18" fill="white" transform="translate(10.4922 11.332)"/>
</clipPath>
</defs>
</svg>
