<svg width="21" height="21" viewBox="0 0 21 21" fill="none" xmlns="http://www.w3.org/2000/svg">
<g id="Frame">
<path id="Vector" d="M10.6666 2.07617C9.05966 2.07617 7.48877 2.55269 6.15262 3.44548C4.81647 4.33827 3.77507 5.60722 3.16011 7.09187C2.54515 8.57652 2.38424 10.2102 2.69775 11.7863C3.01125 13.3624 3.78509 14.8101 4.92139 15.9464C6.05769 17.0827 7.50543 17.8565 9.08152 18.1701C10.6576 18.4836 12.2913 18.3227 13.7759 17.7077C15.2606 17.0927 16.5295 16.0513 17.4223 14.7152C18.3151 13.379 18.7916 11.8081 18.7916 10.2012C18.7894 8.04699 17.9326 5.98168 16.4094 4.45844C14.8861 2.9352 12.8208 2.07845 10.6666 2.07617ZM10.6666 17.0762C9.30688 17.0762 7.97767 16.673 6.84708 15.9175C5.7165 15.1621 4.83531 14.0884 4.31496 12.8321C3.79461 11.5759 3.65846 10.1935 3.92373 8.85993C4.189 7.52631 4.84378 6.3013 5.80527 5.33981C6.76676 4.37833 7.99176 3.72355 9.32538 3.45827C10.659 3.193 12.0413 3.32915 13.2976 3.8495C14.5538 4.36985 15.6275 5.25104 16.383 6.38163C17.1384 7.51221 17.5416 8.84143 17.5416 10.2012C17.5396 12.0239 16.8146 13.7714 15.5257 15.0602C14.2368 16.3491 12.4894 17.0741 10.6666 17.0762ZM15.6666 10.2012C15.6666 10.3669 15.6008 10.5259 15.4836 10.6431C15.3664 10.7603 15.2074 10.8262 15.0416 10.8262H12.1752L14.2338 12.884C14.2919 12.9421 14.3379 13.011 14.3694 13.0869C14.4008 13.1627 14.417 13.2441 14.417 13.3262C14.417 13.4083 14.4008 13.4896 14.3694 13.5655C14.3379 13.6414 14.2919 13.7103 14.2338 13.7684C14.1757 13.8264 14.1068 13.8725 14.0309 13.9039C13.9551 13.9353 13.8738 13.9515 13.7916 13.9515C13.7095 13.9515 13.6282 13.9353 13.5523 13.9039C13.4764 13.8725 13.4075 13.8264 13.3494 13.7684L10.2244 10.6434C10.1369 10.556 10.0773 10.4445 10.0532 10.3232C10.029 10.2019 10.0414 10.0762 10.0887 9.96193C10.1361 9.84766 10.2163 9.75002 10.3191 9.68135C10.422 9.61268 10.5429 9.57607 10.6666 9.57617H15.0416C15.2074 9.57617 15.3664 9.64202 15.4836 9.75923C15.6008 9.87644 15.6666 10.0354 15.6666 10.2012Z" fill="#9E71AB"/>
</g>
</svg>
