<svg width="41" height="40" viewBox="0 0 41 40" fill="none" xmlns="http://www.w3.org/2000/svg">
<path d="M29.0214 14.4909C28.3777 14.7876 27.6839 14.9825 26.965 15.0757C27.7006 14.6265 28.2691 13.9146 28.5366 13.0586C27.8427 13.4824 27.0736 13.779 26.2628 13.9485C25.6024 13.2197 24.6744 12.7959 23.6211 12.7959C21.6566 12.7959 20.0516 14.4231 20.0516 16.4317C20.0516 16.7199 20.085 16.9996 20.1436 17.2623C17.1676 17.1097 14.5176 15.6605 12.7537 13.4654C12.4444 13.9994 12.2688 14.6265 12.2688 15.2876C12.2688 16.5504 12.8958 17.6691 13.8655 18.3047C13.272 18.3047 12.7203 18.1352 12.2354 17.881V17.9064C12.2354 19.6692 13.4726 21.1439 15.1111 21.4744C14.5851 21.6204 14.0328 21.6407 13.4977 21.5338C13.7248 22.2562 14.1694 22.8884 14.7692 23.3414C15.369 23.7945 16.0937 24.0455 16.8415 24.0593C15.5739 25.0767 14.0026 25.6267 12.3859 25.6188C12.1017 25.6188 11.8174 25.6018 11.5332 25.5679C13.1215 26.6019 15.0108 27.2036 17.0338 27.2036C23.6211 27.2036 27.2408 21.6609 27.2408 16.8555C27.2408 16.6945 27.2408 16.5419 27.2325 16.3809C27.9347 15.8724 28.5366 15.2283 29.0214 14.4909Z" fill="white"/>
<rect x="0.777344" y="0.5" width="39" height="39" rx="19.5" stroke="#FDF8F6"/>
</svg>
