<svg width="41" height="40" viewBox="0 0 41 40" fill="none" xmlns="http://www.w3.org/2000/svg">
<path d="M20.3371 13.3784H20.4402C21.3928 13.382 26.2196 13.4173 27.521 13.7732C27.9144 13.8818 28.2729 14.0935 28.5607 14.3871C28.8485 14.6807 29.0554 15.046 29.1608 15.4464C29.2779 15.8942 29.3601 16.4869 29.4158 17.0985L29.4274 17.221L29.4529 17.5274L29.4621 17.6499C29.5374 18.727 29.5467 19.7356 29.5479 19.956V20.0444C29.5467 20.273 29.5363 21.35 29.4529 22.4718L29.4436 22.5955L29.4331 22.718C29.3752 23.3921 29.2894 24.0614 29.1608 24.5539C29.0557 24.9545 28.8489 25.32 28.5611 25.6136C28.2733 25.9073 27.9146 26.1189 27.521 26.2272C26.1767 26.5948 21.0672 26.6208 20.3591 26.6219H20.1946C19.8365 26.6219 18.3554 26.6149 16.8025 26.5607L16.6055 26.5536L16.5047 26.5489L16.3065 26.5406L16.1083 26.5324C14.822 26.4746 13.5971 26.3815 13.0327 26.226C12.6392 26.1178 12.2806 25.9064 11.9928 25.613C11.705 25.3195 11.4981 24.9543 11.3929 24.5539C11.2642 24.0625 11.1785 23.3921 11.1205 22.718L11.1113 22.5943L11.102 22.4718C11.0448 21.6733 11.0131 20.8732 11.007 20.0726L11.007 19.9277C11.0093 19.6744 11.0185 18.7988 11.0811 17.8326L11.0892 17.7112L11.0927 17.6499L11.102 17.5274L11.1275 17.221L11.1391 17.0985C11.1947 16.4869 11.277 15.893 11.394 15.4464C11.4991 15.0458 11.706 14.6804 11.9938 14.3867C12.2816 14.093 12.6402 13.8814 13.0338 13.7732C13.5982 13.62 14.8231 13.5257 16.1095 13.4668L16.3065 13.4585L16.5058 13.4515L16.6055 13.4479L16.8037 13.4397C17.9066 13.4036 19.01 13.3836 20.1134 13.3796H20.3371V13.3784ZM18.4238 17.1609V22.8382L23.2413 20.0008L18.4238 17.1609Z" fill="white"/>
<rect x="0.777344" y="0.5" width="39" height="39" rx="19.5" stroke="#FDF8F6"/>
</svg>
